<svg id="Layer_1" data-name="Layer 1" xmlns="http://www.w3.org/2000/svg" viewBox="0 0 512 512"><defs><style>.cls-1{fill:#6d4135;}</style></defs><title>cog-outline</title><path class="cls-1" d="M298.67,512H213.33A21.33,21.33,0,0,1,192,490.67V459.39A211.8,211.8,0,0,1,157.47,445l-22.15,22.15a21.33,21.33,0,0,1-30.17,0L44.81,406.84a21.33,21.33,0,0,1,0-30.17L67,354.53A211.53,211.53,0,0,1,52.61,320H21.33A21.33,21.33,0,0,1,0,298.67V213.33A21.33,21.33,0,0,1,21.33,192H52.61A211.53,211.53,0,0,1,67,157.47L44.81,135.32a21.33,21.33,0,0,1,0-30.17l60.34-60.34a21.33,21.33,0,0,1,30.17,0L157.47,67A211.5,211.5,0,0,1,192,52.6V21.33A21.33,21.33,0,0,1,213.33,0h85.33A21.33,21.33,0,0,1,320,21.33V52.6a211.85,211.85,0,0,1,34.54,14.34l22.15-22.14a21.33,21.33,0,0,1,30.17,0l60.34,60.33a21.33,21.33,0,0,1,0,30.17L445,157.47A211.55,211.55,0,0,1,459.39,192h31.28A21.33,21.33,0,0,1,512,213.33v85.33A21.33,21.33,0,0,1,490.67,320H459.39A211.53,211.53,0,0,1,445,354.53l22.14,22.15a21.33,21.33,0,0,1,0,30.17l-60.34,60.34a21.33,21.33,0,0,1-30.17,0L354.53,445A211.8,211.8,0,0,1,320,459.39v31.28A21.33,21.33,0,0,1,298.67,512Zm-64-42.67h42.67V443.08a21.33,21.33,0,0,1,16.59-20.8,169.47,169.47,0,0,0,52.78-21.92,21.35,21.35,0,0,1,26.45,3l18.61,18.6,30.17-30.18-18.6-18.6a21.32,21.32,0,0,1-3-26.45,169.26,169.26,0,0,0,21.91-52.77,21.34,21.34,0,0,1,20.8-16.6h26.26V234.67H443.08a21.34,21.34,0,0,1-20.8-16.6,169.11,169.11,0,0,0-21.92-52.76,21.34,21.34,0,0,1,3-26.46l18.61-18.61L391.77,90.06l-18.61,18.6a21.36,21.36,0,0,1-26.45,3,169.09,169.09,0,0,0-52.77-21.92,21.33,21.33,0,0,1-16.6-20.8V42.67H234.67V68.92a21.33,21.33,0,0,1-16.6,20.8,169.43,169.43,0,0,0-52.77,21.92,21.31,21.31,0,0,1-26.45-3l-18.61-18.6L90.06,120.24l18.6,18.6a21.32,21.32,0,0,1,3,26.45,169.26,169.26,0,0,0-21.91,52.77,21.34,21.34,0,0,1-20.8,16.6H42.67v42.67H68.92a21.34,21.34,0,0,1,20.8,16.6,169.26,169.26,0,0,0,21.91,52.77,21.32,21.32,0,0,1-3,26.45l-18.6,18.6,30.17,30.18,18.61-18.6a21.35,21.35,0,0,1,26.45-3,169.47,169.47,0,0,0,52.78,21.92,21.33,21.33,0,0,1,16.59,20.8ZM256,362.67A106.67,106.67,0,1,1,362.67,256,106.79,106.79,0,0,1,256,362.67ZM256,192a64,64,0,1,0,64,64A64.07,64.07,0,0,0,256,192Z"/></svg>